<svg width="1200" height="900" viewBox="0 0 1200 900" fill="none" xmlns="http://www.w3.org/2000/svg">
  <defs>
    <linearGradient id="bg2" x1="0" y1="0" x2="1200" y2="900" gradientUnits="userSpaceOnUse">
      <stop stop-color="#FFF8EF" />
      <stop offset="1" stop-color="#F2E7D8" />
    </linearGradient>
  </defs>
  <rect width="1200" height="900" rx="40" fill="url(#bg2)" />
  <g stroke="#E2D5C2" stroke-width="2">
    <path d="M120 160H1080" />
    <path d="M120 260H1080" />
    <path d="M120 360H1080" />
    <path d="M120 460H1080" />
    <path d="M120 560H1080" />
    <path d="M120 660H1080" />
    <path d="M120 760H1080" />
    <path d="M240 120V800" />
    <path d="M480 120V800" />
    <path d="M720 120V800" />
    <path d="M960 120V800" />
  </g>
  <rect x="170" y="190" width="390" height="120" rx="20" fill="#FFFFFF" stroke="#D9C3A0" stroke-width="2" />
  <rect x="610" y="190" width="420" height="120" rx="20" fill="#FFFFFF" stroke="#D9C3A0" stroke-width="2" />
  <rect x="170" y="360" width="280" height="340" rx="26" fill="#FFFFFF" stroke="#D9C3A0" stroke-width="2" />
  <rect x="480" y="360" width="550" height="340" rx="26" fill="#FFFFFF" stroke="#D9C3A0" stroke-width="2" />
  <rect x="210" y="220" width="230" height="16" rx="8" fill="#C2A169" />
  <rect x="650" y="220" width="250" height="16" rx="8" fill="#4F7770" />
  <rect x="210" y="260" width="190" height="12" rx="6" fill="#D9C3A0" />
  <rect x="650" y="260" width="220" height="12" rx="6" fill="#B8796B" />
  <rect x="210" y="410" width="200" height="14" rx="7" fill="#D9C3A0" />
  <rect x="210" y="450" width="160" height="14" rx="7" fill="#E0D1BD" />
  <rect x="520" y="410" width="260" height="18" rx="9" fill="#C2A169" />
  <rect x="520" y="450" width="340" height="14" rx="7" fill="#D9C3A0" />
  <rect x="520" y="490" width="320" height="14" rx="7" fill="#E0D1BD" />
  <rect x="520" y="540" width="220" height="120" rx="18" fill="#F7F3EC" stroke="#E2D5C2" stroke-width="2" />
  <rect x="760" y="540" width="220" height="120" rx="18" fill="#F7F3EC" stroke="#E2D5C2" stroke-width="2" />
</svg>
